<svg xmlns="http://www.w3.org/2000/svg" width="45" height="45" viewBox="0 0 45 45" fill="none">
<circle cx="22.5" cy="22.5" r="22.5" fill="#FF5138"/>
<path d="M17.2725 26.3652C17.657 26.8829 18.1171 27.343 18.6348 27.7275L11.4795 37.3594C10.0192 36.2746 8.72437 34.9799 7.63965 33.5195L17.2725 26.3652ZM37.3594 33.5195C36.2746 34.9799 34.9799 36.2746 33.5195 37.3594L26.3652 27.7275C26.8829 27.343 27.343 26.8829 27.7275 26.3652L37.3594 33.5195ZM4 22.5C4 21.7017 4.05034 20.9152 4.14844 20.1436L4.19824 19.7842L10.1338 20.6572L16.0703 21.5312C16.0248 21.8411 16 22.164 16 22.5C16 22.836 16.0248 23.1589 16.0703 23.4688L10.1328 24.3418L10.1338 24.3428L4.28418 25.2031L4.19824 25.2148C4.06793 24.3288 4 23.4223 4 22.5ZM40.8008 19.7842C40.9312 20.6706 41 21.5773 41 22.5C41 23.4223 40.9311 24.3287 40.8008 25.2148L40.7158 25.2031L34.8662 24.3428L28.9297 23.4688C28.9752 23.1589 29 22.836 29 22.5C29 22.164 28.9752 21.8411 28.9297 21.5312L40.8008 19.7842ZM18.6348 17.2725C18.1171 17.657 17.657 18.1171 17.2725 18.6348L7.63965 11.4795C8.72439 10.0192 10.0192 8.72439 11.4795 7.63965L18.6348 17.2725ZM33.5195 7.63965C34.9799 8.72437 36.2746 10.0192 37.3594 11.4795L27.7275 18.6348C27.343 18.1171 26.8829 17.657 26.3652 17.2725L33.5195 7.63965ZM22.5 4C23.4223 4 24.3288 4.06793 25.2148 4.19824L23.4688 16.0703C23.1589 16.0248 22.836 16 22.5 16C22.164 16 21.8411 16.0248 21.5312 16.0703L19.7842 4.19824C20.6706 4.06784 21.5774 4 22.5 4Z" fill="white"/>
</svg>